# xmcd
#
# Track frame offsets: 
#        150
#        11625
#        28085
#        40640
#        54802
#        83007
#        102217
#        117162
#        136477
#        158000
#        178680
#        203855
#        250242
#        268615
#        285070
#        298665
#        315875
#        334235
#
# Disc length: 4760 seconds
#
# Revision: 15
# Processed by: cddbd v1.5.2PL0 Copyright (c) Steve Scherf et al.
# Submitted via: ExactAudioCopyFreeDBPlugin 1.0
#
DISCID=ea129612
DTITLE=Stevie Ray Vaughan - SRV [box set]
DYEAR=2000
DGENRE=Blues
TTITLE0=Thunderbird (as Paul Ray and The Cobras)
TTITLE1=I'm Cryin'
TTITLE2=You're Gonna Miss Me Baby (soundcheck)
TTITLE3=They Call Me Guitar Hurricane (live)
TTITLE4=All Your Love (I Miss Loving) (live)
TTITLE5=Come On, Pt. 3
TTITLE6=Letter to My Girlfriend
TTITLE7=Lenny (live)
TTITLE8=Don't Lose Your Cool (live)
TTITLE9=Crosscut Saw (live)
TTITLE10=Manic Depression (live)
TTITLE11=Texas Flood (live)
TTITLE12=Collins Shuffle (live)
TTITLE13=Pride and Joy
TTITLE14=Love Struck Baby (live)
TTITLE15=Hug You, Squeeze You (live)
TTITLE16=Don't Stop By the Creek, Son (ft Johnny Copeland)
TTITLE17=Ask Me No Questions (ft Albert King)
EXTD=
EXTT0=
EXTT1=
EXTT2=
EXTT3=
EXTT4=
EXTT5=
EXTT6=
EXTT7=
EXTT8=
EXTT9=
EXTT10=
EXTT11=
EXTT12=
EXTT13=
EXTT14=
EXTT15=
EXTT16=
EXTT17=
PLAYORDER=
